<svg aria-hidden="true" style="position: absolute; width: 0; height: 0; overflow: hidden;" version="1.1" xmlns="http://www.w3.org/2000/svg" xmlns:xlink="http://www.w3.org/1999/xlink">
<defs>

<symbol id="close"  viewBox="0 0 30 26"  xmlns="http://www.w3.org/2000/svg">
<rect x="5" y="1.5" width="30" height="3" rx="1.5" transform="rotate(45 5 1.5)" />
<rect x="3" y="22.5" width="30" height="3" rx="1.5" transform="rotate(-45 3 22.5)" />
</symbol>

<symbol id="ok" viewBox="0 0 81 80" fill="none" xmlns="http://www.w3.org/2000/svg">
<path d="M53.5936 23.9301C52.9381 23.2782 51.8793 23.2782 51.2227 23.9301L34.5981 40.5721L29.8409 35.5289C29.5243 35.1865 29.0799 34.9918 28.6132 34.9907C28.1477 34.9918 27.7033 35.1865 27.3867 35.5289L21.4195 41.9334C20.7898 42.5842 20.7898 43.6184 21.4195 44.2691L33.3047 56.1704H33.3035C33.6213 56.4859 34.0504 56.6606 34.4972 56.6582C34.9439 56.6606 35.3731 56.4859 35.6909 56.1704L59.5609 32.2501C59.8786 31.9347 60.058 31.5044 60.058 31.0565C60.058 30.6085 59.8786 30.1794 59.5609 29.8628L53.5936 23.9301ZM34.5312 52.5064L24.9829 42.942L28.6145 39.0421L33.3374 44.0854C33.654 44.4137 34.0914 44.5989 34.5475 44.5989C35.0036 44.5989 35.441 44.4137 35.7576 44.0854L52.4161 27.4103L55.9972 30.9914L34.5312 52.5064Z" fill="#859BA6"/>
<path d="M40.5003 6.66705C31.6592 6.66705 23.1817 10.1788 16.9296 16.4296C10.6787 22.6817 7.16699 31.1592 7.16699 40.0002C7.16699 48.8413 10.6787 57.3188 16.9296 63.5708C23.1817 69.8217 31.6592 73.3334 40.5003 73.3334C49.3414 73.3334 57.819 69.8217 64.071 63.5708C70.3219 57.3188 73.8337 48.8413 73.8337 40.0002C73.8254 31.1628 70.3102 22.6886 64.0602 16.4401C57.8118 10.1905 49.3375 6.67515 40.5 6.66675L40.5003 6.66705ZM40.5003 69.9559C32.5505 69.9559 24.9263 66.7971 19.3052 61.1746C13.6838 55.5532 10.5275 47.9281 10.5287 39.9783C10.5299 32.0285 13.6898 24.4044 19.3136 18.7845C24.9359 13.1643 32.5625 10.0092 40.5123 10.0125C48.4622 10.0148 56.0852 13.176 61.7042 18.8007C67.3231 24.4242 70.4774 32.0507 70.4726 40.0005C70.4632 47.9471 67.303 55.5652 61.6843 61.1839C56.0656 66.8025 48.4472 69.9628 40.5009 69.9721L40.5003 69.9559Z" fill="#859BA6"/>
</symbol>

</defs>
</svg>
